<svg xmlns="http://www.w3.org/2000/svg" xmlns:xlink="http://www.w3.org/1999/xlink" viewBox="0 0 46.04 43.48"><defs><style>.cls-1,.cls-2{fill:none;stroke:#ff009c;stroke-miterlimit:10;}.cls-1{stroke-width:0.5px;}.cls-1,.cls-2,.cls-8{opacity:0.52;}.cls-3{fill:#898989;}.cls-4{fill:url(#Degradado_sin_nombre_9);}.cls-5{fill:#3f3f3f;}.cls-6{fill:url(#Degradado_sin_nombre_9-2);}.cls-7{fill:url(#Degradado_sin_nombre_9-3);}.cls-10,.cls-8{fill:#ff009c;}.cls-9{fill:#323532;}</style><radialGradient id="Degradado_sin_nombre_9" cx="87.41" cy="-95.81" r="1.12" gradientTransform="translate(29.09 134.83) rotate(-45)" gradientUnits="userSpaceOnUse"><stop offset="0" stop-color="#686360"/><stop offset="1" stop-color="#342d29"/></radialGradient><radialGradient id="Degradado_sin_nombre_9-2" cx="172.2" cy="44.53" r="1.12" gradientTransform="translate(100.04 178.86) rotate(-135)" xlink:href="#Degradado_sin_nombre_9"/><radialGradient id="Degradado_sin_nombre_9-3" cx="-26.06" cy="-123.43" r="1.12" gradientTransform="matrix(0.71, 0.71, 0.71, -0.71, 141.98, -43.24)" xlink:href="#Degradado_sin_nombre_9"/></defs><title>GraphWars</title><g id="Capa_2" data-name="Capa 2"><g id="Capa_2-2" data-name="Capa 2"><circle class="cls-1" cx="22.94" cy="16.87" r="6.51"/><circle class="cls-2" cx="22.94" cy="16.87" r="8.32"/><circle class="cls-3" cx="23.06" cy="3.62" r="3.62"/><ellipse class="cls-4" cx="23.15" cy="5.28" rx="1.16" ry="1.08" transform="translate(0.03 10.7) rotate(-26.04)"/><path class="cls-5" d="M26.07,1.62a.08.08,0,0,1-.09,0c-3.54-2-6,2.55-6.37,3.11a.79.79,0,0,1-.11-.46c.12-.45,2.68-4.77,6.31-3Z"/><circle class="cls-3" cx="9" cy="27.08" r="3.62"/><ellipse class="cls-6" cx="9.77" cy="25.61" rx="1.08" ry="1.16" transform="matrix(0.08, -1, 1, 0.08, -16.56, 33.23)"/><path class="cls-5" d="M5.38,27.25a.1.1,0,0,1,.08.06c2,3.53,6.46.87,7.06.58a.79.79,0,0,1-.13.45c-.34.32-4.75,2.73-7-.65Z"/><circle class="cls-3" cx="37.04" cy="27.08" r="3.62"/><ellipse class="cls-7" cx="36.27" cy="25.61" rx="1.16" ry="1.08" transform="translate(-1.99 3.08) rotate(-4.73)"/><path class="cls-5" d="M40.66,27.25a.1.1,0,0,0-.08.06c-2,3.53-6.46.87-7.06.58a.71.71,0,0,0,.13.45c.34.32,4.75,2.73,7-.65Z"/><path class="cls-8" d="M22.65,16.15V13.28a3.6,3.6,0,0,0-3.34,3.59,3.55,3.55,0,0,0,.26,1.3l2.79-2A.36.36,0,0,1,22.65,16.15Z"/><path class="cls-8" d="M23.12,16.61l-.11,0h0l-.09,0a.5.5,0,0,1-.13.19l-2.88,2A3.6,3.6,0,0,0,26,18.74L23.25,16.8A.35.35,0,0,1,23.12,16.61Z"/><path class="cls-8" d="M23.67,16.21l2.66,1.87a3.51,3.51,0,0,0,.23-1.21,3.6,3.6,0,0,0-3.18-3.57v2.86A.34.34,0,0,1,23.67,16.21Z"/><path class="cls-9" d="M23.38,13.3l0-7.57a.37.37,0,0,0-.36-.37h0a.36.36,0,0,0-.36.36l0,7.56a2.4,2.4,0,0,1,.28,0A3.12,3.12,0,0,1,23.38,13.3Z"/><path class="cls-9" d="M9.87,25a.36.36,0,0,0-.09.5.38.38,0,0,0,.3.16.35.35,0,0,0,.21-.07l9.62-6.75a2.65,2.65,0,0,1-.33-.65Z"/><path class="cls-9" d="M36.17,25l-9.84-6.9a3.31,3.31,0,0,1-.31.66l9.73,6.83a.33.33,0,0,0,.21.07.36.36,0,0,0,.29-.16A.35.35,0,0,0,36.17,25Z"/><path class="cls-10" d="M4,39.7h.23v1.82a2.47,2.47,0,0,1-1.72.63,2.48,2.48,0,1,1,0-5,2.36,2.36,0,0,1,1.72.64L4.13,38a2.13,2.13,0,0,0-1.57-.59,2.26,2.26,0,1,0,0,4.52A2.17,2.17,0,0,0,4,41.42Z"/><path class="cls-10" d="M7.44,38.46v.23H7.37c-.85,0-1.34.57-1.34,1.5v1.93H5.8V38.49H6v.87A1.39,1.39,0,0,1,7.44,38.46Z"/><path class="cls-10" d="M11,39.77v2.35h-.23v-.73a1.39,1.39,0,0,1-1.35.75c-.82,0-1.3-.41-1.3-1s.34-1,1.32-1h1.33v-.35a1,1,0,0,0-1.12-1.1,1.86,1.86,0,0,0-1.3.49L8.2,39a2.11,2.11,0,0,1,1.43-.53A1.19,1.19,0,0,1,11,39.77Zm-.23,1.3v-.76H9.42c-.79,0-1.09.34-1.09.79s.41.85,1.09.85A1.33,1.33,0,0,0,10.75,41.07Z"/><path class="cls-10" d="M16.06,40.31a1.75,1.75,0,0,1-1.78,1.83,1.67,1.67,0,0,1-1.56-1v2.33h-.23v-5h.22v1a1.66,1.66,0,0,1,1.57-1A1.76,1.76,0,0,1,16.06,40.31Zm-.23,0a1.56,1.56,0,1,0-3.11,0,1.56,1.56,0,1,0,3.11,0Z"/><path class="cls-10" d="M20.38,40v2.14h-.23V40a1.17,1.17,0,0,0-1.26-1.33,1.37,1.37,0,0,0-1.46,1.49v2H17.2v-5.2h.23v2.43a1.53,1.53,0,0,1,1.48-.89A1.37,1.37,0,0,1,20.38,40Z"/><path d="M22,37.48h1.79v.05l.1.1,0,.21H22.14l-.1-.1H22Zm.09.71,0-.28h1.8V38l.1.09,0,.25H22.2l-.1-.11Zm1.63-.63H22.05v.1H23.7Zm-1.57,1.1,0-.32h1.8v.06l.1.09.05.27H22.27l-.11-.1Zm0-.68,0,.14h1.64l0-.14Zm.07,1.13,0-.34H24v0l.1.09.08-.14h2.46v0l.09.09.08-.14h1.91l0,0,.11.1-.14.31h-.16v0l.11.11-.16.32h-.17l.11.1-.16.35H28l.09.09-.17.37h-.09l.06,0-.2.4h-.05l0,0-.21.42h0l-.21.45h0l-.16.34H25.38l-.1-.1h-.05l0-.35V41.8l0-.44,0-.42v0l-.05.13H25l0,0-.19.42h0l-.2.45h0l-.14.34H22.75l-.11-.1h0l0-.35h0l-.05-.46h0l-.06-.45h0l-.05-.44h0v0h-.05l0-.41h.07l-.05,0h0l0-.38h.09l-.07-.07h0l0-.37h.11l-.09-.09Zm0-.69,0,.16h1.65l0-.16Zm0,.42,0,.19H23.9l0-.19Zm4.37.44H22.28l0,.21h5.93l.1-.21Zm-4.25.43,0,.23H28l.11-.23Zm2.75.7,0-.09v.09H27.8l.12-.26H22.4l0,.26Zm-2.63.16,0,.29h2.38l.14-.29Zm.06.44,0,.31h2.12l.14-.31Zm.06.43,0,.34h1.86l.15-.34Zm.09.68h1.65l.11-.24H22.64Zm1.51-3.28-.1.19h2.46l0-.19Zm-.09.35h0Zm.1-.53.16-.32h2.17v0l.11.1,0,.27H24.35l-.1-.1Zm.21-.24-.08.16h2.15l0-.16Zm0-.23.15-.28h1.87V38l.1.09,0,.25h-2l-.1-.11Zm.2-.21-.07.14H26.4l0-.14Zm0-.24.13-.26h1.59v.05l.1.1,0,.21H24.83l-.11-.1Zm.18-.18-.06.1h1.54v-.1Zm.3,3,0,.29h2.39l.14-.29Zm0,.44,0,.31h2.12L27.5,41Zm0,.43,0,.34h1.85l.17-.34Zm.07.68H27l.12-.24h-1.8Zm1.51-3.28-.1.19h1.75l.09-.19Zm0-.18.16-.32h1.9l0,0,.11.11-.12.27H27l-.1-.1Zm.21-.24-.08.16h1.74l.07-.16Zm0-.23.15-.28h1.9l0,0,.12.1-.13.25H27.22l-.1-.11Zm.2-.21-.07.14h1.72L29,38Zm0-.24.13-.26h1.89l0,0,.12.11-.12.21H27.46l-.1-.1Zm.18-.18-.05.1h1.7l.06-.1Z"/><path d="M29.13,39.57l.19-.37h.19l-.09-.09h-.06l.17-.34h3.59v0l.1.09,0,.31h-.09v0l.11.1,0,.32h-.08l.1.1,0,.35h-.07l.09.09.05.37H33.4l.06,0,0,.4h0l0,0,0,.42h0l.05.44h0l0,.35H31.93l-.1-.1h0l-.07-.4-.06-.3H30.25L30,42h0l-.17.34H28l-.1-.1h-.06l.19-.4h0l.18-.41.23-.45.22-.44h.08v0H28.7l.2-.41H29L29,40h-.06l.18-.38h.16l-.07-.07ZM28,42.12h1.71l.12-.24H28.1Zm.33-.68-.16.34h1.71l.18-.34Zm.21-.43-.15.31h5l0-.31Zm.21-.44-.14.29h4.73l0-.29Zm2.86-.37h-1l0-.05H28.94l-.12.26h4.44l0-.26H31.58Zm-2.44-.49-.11.23h1.72l.12-.23Zm.21-.43-.1.21H31l.1-.21Zm.21-.44-.09.19h1.75l.09-.19Zm0-.18.15-.32h3.32v0l.11.1,0,.27H29.75l-.11-.1Zm.19-.24-.07.16H33l0-.16Zm0-.23.14-.28H33V38l.1.09,0,.25H30l-.11-.11ZM30,38l-.07.14h3l0-.14Zm.16-.5h2.78v.05l.11.1,0,.21H30.19l-.1-.1H30Zm2.71.08H30.21l-.05.1h2.73Zm-1.46,2-.06-.35h-.13v0l.11.11-.16.32H31l.11.1-.17.35h.56l0-.06h.1l-.05,0h0l-.05-.38h.09l-.07-.07Zm0-.73,0,.19h1.66l0-.19Zm0,.31,0,.05h.08Zm0,.13,0,.21h1.65l0-.21Zm.07.43,0,.23h1.64l0-.23Zm.23,1.73.06.34h1.65l-.05-.34Zm.07.44.05.24h1.63l0-.24Z"/><path d="M39.51,38.77v0l.1.1,0,.31h-.13a0,0,0,0,0,0,0l.11.11a1.24,1.24,0,0,1,0,.16l-.06.16h-.22l0,.06h0l.06.05.05.08s-.05.08-.07.13l-.09.14h-.26l.08.08,0,.09a1.63,1.63,0,0,1-.3.28h-.29l.06,0v0h1.4v0l.11.11L40,41h0l0,0-.08.42h0l-.08.44h0l-.06.35H37a.88.88,0,0,1-.48-.26l-.13-.11a1.59,1.59,0,0,1-.13-.13h0a1.4,1.4,0,0,1-.12-.18,1.63,1.63,0,0,1-.11-.23l0,.11h0L36,42h0l-.06.35H34.12L34,42.2h0l.06-.35.08-.46.09-.45h0l.08-.44h.07v0h0l0-.41h.11l0,0h0l.07-.38h.13l-.07-.07h0l.07-.37h.15l-.09-.09h0l.06-.34Zm-5.45,3.35h1.66l0-.24H34.1Zm.12-.68-.06.34h1.66l.06-.34Zm.08-.43-.06.31h1.66l.06-.31Zm1.68-.15,0-.1v0s0,0,0,.06H39.8l0-.11H38l.21-.08.2-.1h-4l0,.29Zm2.94-.71H34.4l0,.26h4.25A1.71,1.71,0,0,0,38.88,40.15Zm.29-.44H34.48l0,.23H39l.07-.11Zm-2-.28h-1l0-.15H34.56l0,.21h4.75a.83.83,0,0,0,.06-.21H37.62a.21.21,0,0,1-.17.13A1.38,1.38,0,0,1,37.13,39.43Zm2.27-1.09.07.06v0l.1.09a.22.22,0,0,1,0,.09s0,.09,0,.14H34.74l-.11-.1h0l0-.32Zm0,.69,0-.19H34.63l0,.19h1.66l0-.1h.95a.5.5,0,0,1,.37.1Zm-.19-1.12h0l.07.08v0l0,0,0,0,0,.07,0,.06,0,.06H34.82l-.11-.11h-.05l.06-.28Zm.21.51H34.71l0,.16h4.74s0-.06,0-.08S39.4,38.45,39.4,38.42Zm-1-.94a.89.89,0,0,1,.46.13v0l.1.1,0,.09H34.9l-.1-.1h0l0-.26Zm.76.5H34.79l0,.14h4.51l0-.07Zm-.76-.42H34.87l0,.1h4l-.2-.08ZM36.1,41.32h3.62l.05-.31H36a.88.88,0,0,0,0,.15A1.42,1.42,0,0,0,36.1,41.32Zm.27.46h3.26l.07-.34H36.17a.77.77,0,0,0,.1.18A.86.86,0,0,0,36.37,41.78Zm0-2.43h.72a1.07,1.07,0,0,0,.29,0,.19.19,0,0,0,.15-.13h.12a.5.5,0,0,0-.33-.09h-.9l0,.11h-.12v0Zm.49,2.77h2.68l0-.24H36.46a1.46,1.46,0,0,0,.21.16A.63.63,0,0,0,36.9,42.12Z"/><path d="M41.67,39.11l-.07-.06a.2.2,0,0,1,0-.09s0-.1,0-.19H45.7v0l.11.1,0,.2H43.85l0,0,.07.07h0l0,.05,0,.06,0,0,.13.16a1.59,1.59,0,0,1,.11.16h0a.15.15,0,0,0,0,.08l0,0,.11.17a1.36,1.36,0,0,1,.12.18h0l.07.08.06.11a1,1,0,0,1,.1.26h0l0,0a1.6,1.6,0,0,1,.05.21,1.23,1.23,0,0,1,0,.19h-.09l0,0,.06.07a.09.09,0,0,0,0,.05s0,0,0,0v.08a.29.29,0,0,0,0,.09l0,.09h-.09l0,.08a.76.76,0,0,1-.09.18l-.13.17h0a2.46,2.46,0,0,1-.43.26,1,1,0,0,1-.4.09H40.33l-.1-.1h0l.06-.35.08-.46.08-.45h0l.05-.26h2.18l-.13-.17h0v0h0l0,0,0,0,0,0,0,0-.11-.13-.07-.09-.06-.08h.06l-.05,0h0l0,0a1,1,0,0,1-.11-.15l-.11-.16,0,0v0h.07l-.07-.07h0l-.06,0a.6.6,0,0,1-.07-.14c0-.06,0-.13-.08-.2h.14l0,0-.07-.06Zm-1.35,2.77,0,.24h3.34a1,1,0,0,0,.68-.24Zm4.3-.44H40.4l-.07.34H44.4a1.83,1.83,0,0,0,.13-.16Zm.1-.43H40.47l0,.31h4.24a.14.14,0,0,0,0-.06.2.2,0,0,0,0-.07.28.28,0,0,0,0-.09S44.71,41,44.72,41Zm-4.2-.26,0,.11h4.22l0-.15,0-.14h-2a.35.35,0,0,0,.07.09l.07.09Zm1.14-2.09-.07-.08s0-.06,0-.1a1.21,1.21,0,0,1,0-.14h4.13v0l.1.11,0,.27h-4l-.11-.1Zm0,.37h2l0-.05,0,0h2v-.09h-4s0,.07,0,.1A.29.29,0,0,0,41.68,39Zm0-.45h4l0-.16h-4A.62.62,0,0,0,41.67,38.58Zm.18.91H44L44,39.38a.39.39,0,0,1-.08-.1H41.75l0,.1A.54.54,0,0,0,41.85,39.49Zm0-1.3-.06-.1s0,0,0,0l0,0,.06-.08.06-.06h3.92v0l.1.1-.05.25H42l-.1-.11Zm0-.07h3.87l0-.14H42l-.06.07Zm.28,1.82h2.22l-.07-.11-.09-.12H42a.75.75,0,0,0,.07.12Zm.37.47h2.09l-.06-.13a.75.75,0,0,0-.06-.13H42.3l.11.13Zm-.14-2.67,0-.14a1.29,1.29,0,0,1,.5-.12h3.09v0l.11.11,0,.21H42.52l-.1-.1Zm0-.08h3.42l0-.1h-3l-.23,0Z"/></g></g></svg>